<svg width="42" height="42" viewBox="0 0 42 42" fill="none" xmlns="http://www.w3.org/2000/svg">
<g filter="url(#filter0_d_3642_6612)">
<circle cx="21" cy="21" r="17" fill="#6C57EC"/>
<path d="M18.1708 22.2364C18.3635 22.1601 18.5672 22.1201 18.7745 22.1201H22.5272C23.2545 22.1201 23.8435 21.531 23.8435 20.8037V13.1892C23.8435 12.4619 23.2545 11.8728 22.5272 11.8728H11.4072C10.6799 11.8728 10.0908 12.4619 10.0908 13.1892V20.8037C10.0908 21.531 10.6799 22.1201 11.4072 22.1201H11.9817C12.7345 22.1201 13.3963 22.6292 13.5854 23.3601L13.9635 24.811C14.0035 24.9564 14.109 25.0692 14.2508 25.1164C14.3926 25.1637 14.5454 25.1346 14.6617 25.0364L17.7163 22.5019C17.8472 22.3928 17.9926 22.3128 18.1454 22.2473C18.1563 22.2437 18.1635 22.2401 18.1708 22.2364ZM15.1017 19.8946C14.9563 19.8946 14.8399 19.7783 14.8399 19.6328V16.251C14.8399 15.0764 15.7926 14.1237 16.9672 14.1237C18.1417 14.1237 19.0945 15.0764 19.0945 16.251V19.6328C19.0945 19.7783 18.9781 19.8946 18.8326 19.8946C18.6872 19.8946 18.5708 19.7783 18.5708 19.6328V17.7273H15.3635V19.6328C15.3635 19.7783 15.2472 19.8946 15.1017 19.8946Z" fill="#F1F1F1"/>
<path d="M25.2181 23.4436C25.8108 22.8073 26.0508 22.08 26.1417 21.6873H24.2981C24.3854 22.08 24.6254 22.8073 25.2181 23.4436Z" fill="#F1F1F1"/>
<path d="M30.6325 17.5964H24.3671V20.8037C24.3671 20.9273 24.3525 21.0473 24.3307 21.1637H24.9525V19.7273C24.9525 19.5819 25.0689 19.4655 25.2143 19.4655C25.3598 19.4655 25.4762 19.5819 25.4762 19.7273V21.1637H27.3489C27.4943 21.1637 27.6107 21.2801 27.6107 21.4255C27.6107 21.571 27.4943 21.6873 27.3489 21.6873H26.6689C26.5816 22.1019 26.3162 23.0037 25.5925 23.7892C26.0434 24.1492 26.6362 24.4437 27.4325 24.5746C27.5743 24.5964 27.6725 24.7346 27.6471 24.8764C27.6253 25.0037 27.5162 25.0946 27.3889 25.0946C27.3743 25.0946 27.3598 25.0946 27.3453 25.091C26.4143 24.9383 25.7307 24.5783 25.2107 24.1455C24.6943 24.5783 24.0071 24.9383 23.0762 25.091C23.0616 25.0946 23.0471 25.0946 23.0325 25.0946C22.9053 25.0946 22.7962 25.0037 22.7743 24.8764C22.7525 24.7346 22.8471 24.6001 22.9889 24.5746C23.7853 24.4437 24.378 24.1455 24.8289 23.7892C24.2798 23.1928 23.9962 22.531 23.8543 22.0619C23.5198 22.4183 23.0471 22.6437 22.5198 22.6437H18.7743C18.6907 22.6437 18.6071 22.6583 18.5234 22.6764V25.931C18.5234 26.6328 19.0943 27.2073 19.7998 27.2073H23.3162C23.7816 27.2073 24.2362 27.371 24.5962 27.6655L27.4543 30.0292C27.5707 30.1273 27.7234 30.1528 27.8689 30.1092C28.0143 30.0619 28.1198 29.9492 28.1562 29.8037L28.4325 28.7201C28.6616 27.8292 29.458 27.211 30.378 27.211H30.6325C31.338 27.211 31.9089 26.6401 31.9089 25.9346V18.8728C31.9089 18.1673 31.338 17.5964 30.6325 17.5964Z" fill="#F1F1F1"/>
<path d="M18.5708 17.2038V16.2511C18.5708 15.3675 17.8508 14.6475 16.9672 14.6475C16.0835 14.6475 15.3635 15.3675 15.3635 16.2511V17.2038H18.5708Z" fill="#F1F1F1"/>
</g>
<defs>
<filter id="filter0_d_3642_6612" x="0" y="0" width="42" height="42" filterUnits="userSpaceOnUse" color-interpolation-filters="sRGB">
<feFlood flood-opacity="0" result="BackgroundImageFix"/>
<feColorMatrix in="SourceAlpha" type="matrix" values="0 0 0 0 0 0 0 0 0 0 0 0 0 0 0 0 0 0 127 0" result="hardAlpha"/>
<feOffset/>
<feGaussianBlur stdDeviation="2"/>
<feComposite in2="hardAlpha" operator="out"/>
<feColorMatrix type="matrix" values="0 0 0 0 0 0 0 0 0 0 0 0 0 0 0 0 0 0 0.15 0"/>
<feBlend mode="normal" in2="BackgroundImageFix" result="effect1_dropShadow_3642_6612"/>
<feBlend mode="normal" in="SourceGraphic" in2="effect1_dropShadow_3642_6612" result="shape"/>
</filter>
</defs>
</svg>
